<svg width="121" height="75" viewBox="0 0 121 75" fill="none" xmlns="http://www.w3.org/2000/svg">
<path d="M75.4798 53.4933C75.1181 53.4933 74.7779 53.4365 74.4593 53.323C74.1462 53.204 73.8735 53.031 73.6413 52.8039C73.4091 52.5769 73.2255 52.2957 73.0905 51.9605C72.961 51.6199 72.8962 51.2279 72.8962 50.7845C72.8962 50.3466 72.9637 49.9573 73.0986 49.6167C73.2336 49.2706 73.4172 48.9787 73.6494 48.7408C73.887 48.5029 74.1624 48.3218 74.4755 48.1974C74.7887 48.073 75.1208 48.0109 75.4717 48.0109C75.8551 48.0109 76.1845 48.0812 76.4599 48.2217C76.7352 48.3623 76.9593 48.5218 77.1321 48.7002L76.5085 49.4626C76.3735 49.3436 76.2304 49.2436 76.0792 49.1625C75.928 49.0814 75.739 49.0409 75.5122 49.0409C75.3071 49.0409 75.1181 49.0814 74.9453 49.1625C74.7779 49.2382 74.6321 49.349 74.5079 49.495C74.3837 49.641 74.2865 49.8194 74.2164 50.0303C74.1516 50.2411 74.1192 50.479 74.1192 50.744C74.1192 51.2901 74.2406 51.7145 74.4836 52.0173C74.732 52.3146 75.1046 52.4633 75.6013 52.4633C75.7093 52.4633 75.8146 52.4498 75.9172 52.4228C76.0198 52.3957 76.1035 52.3552 76.1683 52.3011V51.3928H75.2936V50.4196H77.2212V52.8526C77.0376 53.031 76.7946 53.1824 76.4923 53.3068C76.1899 53.4311 75.8524 53.4933 75.4798 53.4933Z" fill="#171321"/>
<path d="M78.3032 53.396V48.1082H79.4938V53.396H78.3032Z" fill="#171321"/>
<path d="M81.849 53.396V49.1138H80.3992V48.1082H84.4974V49.1138H83.0477V53.396H81.849Z" fill="#171321"/>
<path d="M85.406 53.396V48.1082H86.5966V52.3903H88.6862V53.396H85.406Z" fill="#171321"/>
<path d="M91.3392 50.7196L91.2096 51.2062H92.3354L92.2139 50.7196C92.1383 50.4547 92.0654 50.1736 91.9953 49.8762C91.9251 49.5788 91.8549 49.2923 91.7847 49.0165H91.7523C91.6875 49.2977 91.62 49.5869 91.5498 49.8843C91.485 50.1763 91.4148 50.4547 91.3392 50.7196ZM89.4278 53.396L91.08 48.1082H92.5136L94.1659 53.396H92.9024L92.5784 52.1389H90.9666L90.6427 53.396H89.4278Z" fill="#171321"/>
<path d="M94.9908 53.396V48.1082H96.797C97.0724 48.1082 97.3261 48.1298 97.5583 48.1731C97.7959 48.2109 98.0011 48.2812 98.1739 48.3839C98.352 48.4867 98.4897 48.6218 98.5869 48.7894C98.6895 48.957 98.7408 49.1679 98.7408 49.422C98.7408 49.541 98.7246 49.6599 98.6922 49.7789C98.6598 49.8978 98.6139 50.0087 98.5545 50.1114C98.4951 50.2141 98.4222 50.306 98.3359 50.3871C98.2549 50.4682 98.1604 50.5277 98.0524 50.5656V50.598C98.1874 50.6304 98.3116 50.6818 98.4249 50.7521C98.5383 50.817 98.6382 50.9008 98.7246 51.0035C98.811 51.1062 98.8785 51.2279 98.9271 51.3685C98.9757 51.5036 99 51.6604 99 51.8388C99 52.1092 98.946 52.3417 98.838 52.5363C98.7354 52.7309 98.5896 52.8931 98.4006 53.0229C98.2171 53.1473 98.0011 53.2419 97.7527 53.3068C97.5043 53.3662 97.237 53.396 96.9509 53.396H94.9908ZM96.1814 50.2249H96.7403C97.0319 50.2249 97.2424 50.1682 97.372 50.0546C97.507 49.9411 97.5745 49.7897 97.5745 49.6004C97.5745 49.395 97.507 49.249 97.372 49.1625C97.237 49.076 97.0292 49.0327 96.7484 49.0327H96.1814V50.2249ZM96.1814 52.4714H96.8537C97.507 52.4714 97.8337 52.2335 97.8337 51.7577C97.8337 51.5252 97.7527 51.3603 97.5907 51.263C97.4287 51.1603 97.183 51.1089 96.8537 51.1089H96.1814V52.4714Z" fill="#171321"/>
<g clip-path="url(#clip0_1113_1299)">
<path d="M65.2332 45.9201V38.1464C65.0463 38.4441 64.7532 38.9286 64.4845 39.173C63.9985 39.6151 63.3609 40.0016 62.6166 40.0016V38.2572C62.7445 38.2572 62.9791 38.1842 63.3108 37.8825C63.6316 37.5908 63.9603 37.1579 64.2592 36.6385C64.8713 35.5746 65.2332 34.3725 65.2332 33.7092H63.3642V31.9648H65.2332V28.8498H66.9776V31.9648H68.8466V33.7092H66.9776C66.9776 34.7968 67.4322 35.7158 68.0274 36.3693C68.6585 37.0622 69.3145 37.3227 69.5942 37.3227V39.0671C68.7212 39.0671 67.7485 38.5423 66.9776 37.7919V45.9201H65.2332Z" fill="#171321"/>
<path fill-rule="evenodd" clip-rule="evenodd" d="M68.8466 31.3418H70.591V34.5814C70.591 36.2641 70.3406 38.7991 69.7551 40.8875C69.461 41.9367 69.0991 42.8108 68.685 43.4037C68.2684 44 67.903 44.1757 67.6006 44.1757V45.9201C68.7156 45.9201 69.5417 45.2235 70.1151 44.4026C70.691 43.5781 71.1176 42.4898 71.4348 41.3584C71.6941 40.4335 71.8915 39.4382 72.0344 38.4611C72.4195 39.3162 72.8685 40.1594 73.3649 40.9487C73.6233 41.3597 73.8976 41.761 74.1861 42.1459C73.6936 42.6397 73.1937 43.0638 72.7155 43.3963C71.9171 43.9516 71.2884 44.1757 70.9026 44.1757V45.9201C71.825 45.9201 72.8161 45.4511 73.7115 44.8285C74.2477 44.4556 74.7899 43.9993 75.3154 43.4827C75.6324 43.8128 75.9615 44.119 76.3012 44.395C77.4051 45.2922 78.6844 45.9201 80.0607 45.9201V44.1757C79.2254 44.1757 78.3241 43.7912 77.4013 43.0413C77.0927 42.7905 76.7888 42.5043 76.4922 42.1888C78.1223 40.19 79.5 37.5467 79.5 35.0798V34.8306C79.5 34.4866 79.2211 34.2076 78.877 34.2076H76.4829L78.1479 30.4742C78.3316 30.0621 78.03 29.5974 77.5789 29.5974H68.8466V31.3418ZM75.3655 40.8034C76.541 39.2889 77.432 37.5398 77.6837 35.952H74.755C74.3038 35.952 74.0022 35.4874 74.186 35.0753L75.8509 31.3418H72.3355V32.837C72.3355 34.6726 73.2969 37.5637 74.8416 40.0201C75.0109 40.2894 75.1858 40.5511 75.3655 40.8034Z" fill="#171321"/>
</g>
<path d="M84.0378 34.381C84.1816 34.9715 84.3013 35.6297 84.3929 36.3663C84.3787 36.4614 84.317 36.6537 84.134 36.9387C83.9337 37.251 83.6409 37.5919 83.2982 37.9096C82.9561 38.2268 82.5876 38.4993 82.2503 38.6872C81.8919 38.8869 81.6559 38.9425 81.5559 38.9425V40.6869C82.0945 40.6869 82.6419 40.466 83.0994 40.2111C83.5779 39.9444 84.0578 39.5841 84.4842 39.1888C84.5221 39.1537 84.5598 39.1181 84.5971 39.0821C84.634 39.9047 84.6484 40.6135 84.6225 41.2264C84.5868 42.0731 84.4759 42.66 84.2916 43.0715C84.1227 43.4486 83.8862 43.6947 83.514 43.8673C83.1075 44.0558 82.495 44.1757 81.5559 44.1757V45.9201C82.6104 45.9201 83.5126 45.7908 84.2479 45.4498C85.0176 45.0928 85.5501 44.529 85.8836 43.7846C86.2015 43.0748 86.3262 42.2287 86.3654 41.2999C86.4049 40.3645 86.3594 39.2665 86.2894 38.0213C86.1767 36.0194 85.8993 34.3959 85.4805 33.0597C86.3528 32.1182 87.1376 30.986 87.5435 29.9037L85.9102 29.2912C85.68 29.9048 85.2601 30.5916 84.7415 31.2446C84.2283 30.2566 83.6047 29.4745 82.889 28.8263L81.718 30.1193C82.3757 30.7149 82.9754 31.4883 83.4556 32.6033C83.1 32.9169 82.7499 33.1777 82.4293 33.3692C81.9888 33.6322 81.6953 33.7092 81.5559 33.7092V35.4536C82.1641 35.4536 82.7857 35.188 83.3235 34.867C83.5605 34.7255 83.7999 34.5618 84.0378 34.381Z" fill="#171321"/>
<path d="M92.657 29.5381C94.7481 29.3407 96.9786 29.1274 97.5892 29.059L97.7832 30.7926C97.4966 30.8247 96.8741 30.8868 96.0848 30.9634C96.1303 32.2365 96.3047 35.2828 96.7642 38.1882C97.0352 39.9013 97.3969 41.5088 97.8651 42.6664C98.1003 43.2481 98.3405 43.6599 98.5671 43.9122C98.7869 44.1568 98.9311 44.1763 99 44.1757V45.9201C98.2668 45.9265 97.6957 45.5524 97.2695 45.078C96.8502 44.6113 96.5185 43.9896 96.2479 43.3204C95.7043 41.9763 95.3183 40.2123 95.0412 38.4607C94.5815 35.554 94.3988 32.5251 94.3455 31.1303C93.9114 31.1716 93.4654 31.2139 93.0245 31.2555C93.0626 36.7615 92.9523 39.5463 91.9214 43.1952L93.3971 42.6967C93.1013 41.9524 92.8092 41.1977 92.5947 40.5999L94.2366 40.0108C94.5541 40.8956 95.0575 42.1613 95.486 43.2157C95.6994 43.7408 95.8926 44.2098 96.0325 44.5475C96.1024 44.7163 96.159 44.8522 96.198 44.9459C96.2175 44.9927 96.2327 45.0289 96.2429 45.0533L96.2583 45.0902L96.2584 45.0903C96.2584 45.0903 96.2584 45.0903 95.454 45.4275C94.6497 45.7648 94.6496 45.7647 94.6496 45.7647L94.6336 45.7264C94.6231 45.7014 94.6078 45.6646 94.588 45.6173C94.5485 45.5225 94.4914 45.3853 94.4209 45.2151C94.3208 44.9734 94.1936 44.665 94.0512 44.317L90.393 45.5527C89.9063 45.7172 89.4409 45.2549 89.6021 44.7671L89.7587 44.293C91.1586 40.0563 91.3205 37.5582 91.2811 31.4197C90.8189 31.463 90.393 31.5029 90.0295 31.5369C89.8742 31.5514 89.7303 31.5648 89.5998 31.577C89.616 34.9045 89.5451 38.1915 89.2012 40.7203C89.0166 42.0775 88.7447 43.2895 88.3254 44.1863C87.9183 45.0571 87.2304 45.9043 86.1134 45.914L86.0982 44.1697C86.1804 44.169 86.427 44.1279 86.7452 43.4475C87.0511 42.7931 87.2951 41.7908 87.4727 40.4852C87.8254 37.8917 87.8814 34.3892 87.8499 30.7905L87.848 30.5614C87.8451 30.2376 88.0908 29.9656 88.4132 29.9356C89.8279 29.8039 91.2425 29.6716 92.657 29.5381Z" fill="#171321"/>
<path d="M54.1075 33.4645L56.0717 39.52C56.2501 40.0698 56.0574 40.6768 55.5866 41.0195L38.5675 53.3961L54.1075 33.4645Z" fill="#FCA326"/>
<path d="M23.0369 33.4645L21.0657 39.52C20.8873 40.0698 21.0799 40.6768 21.5508 41.0195L38.5676 53.396L23.0369 33.4645Z" fill="#FCA326"/>
<path d="M38.5675 53.3961L45.0407 33.4645H54.1075L38.5675 53.3961Z" fill="#FC6D26"/>
<path d="M38.5676 53.3961L23.0369 33.4645H32.1037L38.5676 53.3961Z" fill="#FC6D26"/>
<path d="M54.1076 33.4645H45.0408L48.9357 21.4606C49.1354 20.8465 50.0058 20.8465 50.2126 21.4606L54.1076 33.4645Z" fill="#E24329"/>
<path d="M23.0369 33.4645H32.1037L28.2016 21.4606C28.0019 20.8465 27.1316 20.8465 26.9247 21.4606L23.0369 33.4645Z" fill="#E24329"/>
<path d="M38.5675 53.3961L45.0408 33.4645H32.1037L38.5675 53.3961Z" fill="#E24329"/>
<defs>
<clipPath id="clip0_1113_1299">
<rect width="17.4441" height="17.4441" fill="white" transform="translate(62.6166 28.476)"/>
</clipPath>
</defs>
</svg>
